<?xml version="1.0" encoding="utf-8"?>
<svg width="171.429" height="37" viewBox="0 0 171.429 37" fill="none" xmlns="http://www.w3.org/2000/svg">
  <defs>
    <mask id="mask_1" x="959.227" y="155.487" width="19.114" height="23.829">
      <path d="M19.1143 0L0 0L0 23.8287L19.1143 23.8287L19.1143 0L19.1143 0Z" transform="translate(0.414 0.177)" />
    </mask>
  </defs>
  <g>
    <path d="M0 0.321803L5.16031 0.321803L5.16031 2.76916C6.34902 1.32032 7.90984 0 10.5249 0C12.9008 0 14.6997 0.998026 15.6508 2.73703C17.2465 0.965895 19.1476 0 21.6257 0C25.4628 0 27.7704 2.18933 27.7704 6.34404L27.7704 17.5823L22.6101 17.5823L22.6101 7.95354C22.6101 5.6352 21.5235 4.44389 19.5885 4.44389C17.6541 4.44389 16.4654 5.6352 16.4654 7.95354L16.4654 17.5823L11.305 17.5823L11.305 7.95354C11.305 5.6352 10.2185 4.44389 8.28349 4.44389C6.34902 4.44389 5.16031 5.6352 5.16031 7.95354L5.16031 17.5823L0 17.5823L0 0.321803L0 0.321803Z" fill="#FFFFFF" fill-rule="evenodd" transform="translate(0 6.412)" />
    <path d="M14.5986 9.04845L14.5986 8.9837C14.5986 6.44043 12.6636 4.21751 9.81198 4.21751C6.85817 4.21751 5.09256 6.37568 5.09256 8.91943L5.09256 8.9837C5.09256 11.5279 7.02755 13.7494 9.87921 13.7494C12.833 13.7494 14.5986 11.5927 14.5986 9.04845M0 9.04845L0 8.9837C0 4.02472 4.21027 0 9.87921 0C15.5153 0 19.6917 3.95997 19.6917 8.91943L19.6917 8.9837C19.6917 13.9432 15.4809 17.9684 9.81197 17.9684C4.17588 17.9684 0 14.0069 0 9.04845" fill="#FFFFFF" fill-rule="evenodd" transform="translate(29.639 6.412)" />
    <g transform="translate(50.813 0.31)" mask="url(#mask_1)">
      <path d="M14.0212 14.9091L14.0212 14.8453C14.0212 11.9783 12.019 10.0791 9.60821 10.0791C7.19743 10.0791 5.16082 11.9466 5.16082 14.8453L5.16082 14.9091C5.16082 17.7756 7.19743 19.6752 9.60821 19.6752C12.019 19.6752 14.0212 17.7756 14.0212 14.9091M0 14.9091L0 14.8453C0 9.08058 3.97211 5.92535 8.284 5.92535C11.0335 5.92535 12.7314 7.11666 13.954 8.50124L13.954 0L19.1143 0L19.1143 23.5072L13.954 23.5072L13.954 21.0277C12.697 22.6377 10.9663 23.829 8.284 23.829C4.04038 23.829 0 20.6733 0 14.9091" fill="#FFFFFF" fill-rule="evenodd" transform="translate(0.414 0.176)" />
    </g>
    <path d="M0 0.32936L5.16031 0.32936L5.16031 3.80736C6.21301 1.42378 7.90984 -0.121943 10.9658 0.00755692L10.9658 5.12719L10.6943 5.12719C7.26569 5.12719 5.16031 7.0916 5.16031 11.2132L5.16031 17.5899L0 17.5899L0 0.32936Z" fill="#FFFFFF" fill-rule="evenodd" transform="translate(92.211 6.404)" />
    <path d="M0 0.321803L5.16031 0.321803L5.16031 2.76916C6.34901 1.32032 7.87647 0 10.49 0C14.3949 0 16.6696 2.44687 16.6696 6.40782L16.6696 17.5823L11.5093 17.5823L11.5093 7.95354C11.5093 5.6352 10.3545 4.44389 8.38563 4.44389C6.41625 4.44389 5.16031 5.6352 5.16031 7.95354L5.16031 17.5823L0 17.5823L0 0.321803Z" fill="#FFFFFF" fill-rule="evenodd" transform="translate(105.299 6.412)" />
    <path d="M0 4.34653L5.43182 4.34653L5.43182 0L0 0L0 4.34653Z" fill="#FFFFFF" fill-rule="evenodd" transform="translate(124.326 0.487)" />
    <path d="M0 17.2605L5.1603 17.2605L5.1603 0L0 0L0 17.2605Z" fill="#FFFFFF" fill-rule="evenodd" transform="translate(124.462 6.734)" />
    <path d="M8.99744 3.92833C11.0397 3.92833 12.3618 5.23793 12.7668 7.21257L5.14234 7.21257C5.63507 5.21116 6.98495 3.92833 8.99744 3.92833M17.8578 9.37025C17.8578 4.47554 15.0744 0 8.99744 0C3.70111 0 0 4.05734 0 8.9837L0 9.04893C0 14.3297 4.04037 17.9684 9.50607 17.9684C12.7997 17.9684 15.2443 16.7454 16.9411 14.7484L13.9884 12.2689C12.562 13.524 11.3061 14.0396 9.57433 14.0396C7.26569 14.0396 5.6361 12.8809 5.12695 10.6584L17.7906 10.6584C17.8245 10.2081 17.8578 9.7568 17.8578 9.37025" fill="#FFFFFF" fill-rule="evenodd" transform="translate(72.295 6.412)" />
    <path d="M15.8202 3.44587L15.8202 0L0.305389 0L0.305389 3.96095L9.40393 3.96095L0 13.8146L0 17.2605L2.57503 17.2605L15.8202 3.44587Z" fill="#FFFFFF" fill-rule="evenodd" transform="translate(131.829 6.734)" />
    <path d="M0.181686 1.77065C0.120102 1.77065 0.0605621 1.76626 0 1.7648L3.34441 5.2428C5.06895 4.71604 6.46245 3.75745 7.54851 2.47949L4.59573 0C3.16937 1.25557 1.91344 1.77065 0.181686 1.77065" fill="#FFFFFF" fill-rule="evenodd" transform="translate(157.522 18.681)" />
    <path d="M4.31137 7.21256C4.80359 5.21116 6.15398 3.92833 8.16646 3.92833C10.2087 3.92833 11.5304 5.23745 11.9353 7.21256L4.31137 7.21256ZM8.16646 0C4.35089 0 1.37245 2.11095 0 5.13034L5.31583 10.6584L16.9596 10.6584C16.993 10.2081 17.0269 9.7568 17.0269 9.37025C17.0269 4.47554 14.2435 0 8.16646 0L8.16646 0Z" fill="#FFFFFF" fill-rule="evenodd" transform="translate(148.96 6.412)" />
    <path d="M0 3.96679L4.95706 3.96679L4.95706 0L0 0L0 3.96679Z" fill="#FEC14B" fill-rule="evenodd" transform="translate(142.693 20.033)" />
    <path d="M0 5.45653L0 0L1.31805 0L1.31805 2.21659L3.59538 2.21659L3.59538 0L4.91343 0L4.91343 5.45653L3.59538 5.45653L3.59538 3.19028L1.31805 3.19028L1.31805 5.45653L0 5.45653Z" fill="#FFFFFF" fill-rule="evenodd" transform="translate(0 31.289)" />
    <path d="M2.84654 4.65323C3.87254 4.65323 4.35192 3.8222 4.35192 2.80616C4.35192 1.79012 3.85766 0.959078 2.83884 0.959078C1.81283 0.959078 1.33345 1.79012 1.33345 2.80616C1.33345 3.8222 1.82772 4.65323 2.84654 4.65323M2.84654 0C4.69684 0 5.68537 1.20737 5.68537 2.80616C5.68537 4.39034 4.70402 5.61231 2.83884 5.61231C0.98905 5.61231 0 4.40495 0 2.80616C0 1.22197 0.981352 0 2.84654 0" fill="#FFFFFF" fill-rule="evenodd" transform="translate(6.945 31.211)" />
    <path d="M6.18683 0L6.18683 5.45653L4.88366 5.45653L4.88366 1.85438L4.86878 1.85438L3.63233 5.45653L2.52421 5.45653L1.28828 1.8685L1.2734 1.8685L1.2734 5.45653L0 5.45653L0 0L1.77485 0L3.10111 3.9293L3.116 3.9293L4.43404 0L6.18683 0Z" fill="#FFFFFF" fill-rule="evenodd" transform="translate(14.663 31.289)" />
    <path d="M0 5.45653L0 0L4.02241 0L4.02241 0.966381L1.31086 0.966381L1.31086 2.2239L3.66262 2.2239L3.66262 3.18298L1.31086 3.18298L1.31086 4.49015L4.07476 4.49015L4.07476 5.45653L0 5.45653Z" fill="#FFFFFF" fill-rule="evenodd" transform="translate(23.106 31.289)" />
    <path d="M0 5.45653L0 0L3.55791 0L3.55791 0.390448L0.4645 0.390448L0.4645 2.50821L3.19093 2.50821L3.19093 2.89866L0.4645 2.89866L0.4645 5.06608L3.61026 5.06608L3.61026 5.45653L0 5.45653Z" fill="#FFFFFF" fill-rule="evenodd" transform="translate(32.644 31.289)" />
    <path d="M5.59504 0L5.59504 5.45653L5.13054 5.45653L5.13054 0.610987L5.11565 0.610987L3.01078 5.45653L2.57656 5.45653L0.471684 0.625105L0.456802 0.625105L0.456802 5.45653L0 5.45653L0 0L0.68161 0L2.79367 4.85966L2.80856 4.85966L4.91343 0L5.59504 0Z" fill="#FFFFFF" fill-rule="evenodd" transform="translate(38.503 31.289)" />
    <path d="M2.48674 2.67861C2.98101 2.67861 3.39316 2.41571 3.39316 1.82614C3.39316 1.23658 2.98101 0.966383 2.48674 0.966383L1.31856 0.966383L1.31856 2.67861L2.48674 2.67861ZM2.61403 0C3.77502 0 4.7266 0.647013 4.7266 1.80472C4.7266 2.97022 3.7976 3.64499 2.59145 3.64499L1.31856 3.64499L1.31856 5.45653L0 5.45653L0 0L2.61403 0Z" fill="#FFFFFF" fill-rule="evenodd" transform="translate(46.52 31.289)" />
    <path d="M2.84653 4.65323C3.87254 4.65323 4.35192 3.8222 4.35192 2.80616C4.35192 1.79012 3.85765 0.959078 2.83884 0.959078C1.81283 0.959078 1.33345 1.79012 1.33345 2.80616C1.33345 3.8222 1.82772 4.65323 2.84653 4.65323M2.84653 0C4.69683 0 5.68537 1.20737 5.68537 2.80616C5.68537 4.39034 4.70402 5.61231 2.83884 5.61231C0.989052 5.61231 0 4.40495 0 2.80616C0 1.22197 0.98135 0 2.84653 0" fill="#FFFFFF" fill-rule="evenodd" transform="translate(52.94 31.211)" />
    <path d="M8.11206 0L6.49427 5.45653L5.07819 5.45653L4.08246 1.74095L4.06707 1.74095L3.06364 5.45653L1.61831 5.45653L0 0L1.37862 0L2.41232 3.9147L2.4272 3.9147L3.38546 0L4.80154 0L5.76031 3.87234L5.7752 3.87234L6.78631 0L8.11206 0Z" fill="#FFFFFF" fill-rule="evenodd" transform="translate(60.066 31.289)" />
    <path d="M0 5.45653L0 0L4.02242 0L4.02242 0.966381L1.31087 0.966381L1.31087 2.2239L3.66262 2.2239L3.66262 3.18298L1.31087 3.18298L1.31087 4.49015L4.07477 4.49015L4.07477 5.45653L0 5.45653Z" fill="#FFFFFF" fill-rule="evenodd" transform="translate(69.978 31.289)" />
    <path d="M1.31857 2.38747L2.54679 2.38747C2.95894 2.38747 3.30334 2.15963 3.30334 1.67669C3.30334 1.18644 2.95894 0.966381 2.54679 0.966381L1.31857 0.966381L1.31857 2.38747ZM2.34457 3.33925L1.31857 3.33925L1.31857 5.45653L0 5.45653L0 0L2.69666 0C3.82018 0 4.62908 0.575447 4.62908 1.59149C4.62908 2.30909 4.20924 2.81346 3.5805 3.05494L4.79384 5.45653L3.34798 5.45653L2.34457 3.33925Z" fill="#FFFFFF" fill-rule="evenodd" transform="translate(76.039 31.289)" />
    <path d="M5.59504 0L5.59504 5.45653L5.13105 5.45653L5.13105 0.610987L5.11565 0.610987L3.01078 5.45653L2.57656 5.45653L0.471687 0.625105L0.456802 0.625105L0.456802 5.45653L0 5.45653L0 0L0.68161 0L2.79418 4.85966L2.80856 4.85966L4.91343 0L5.59504 0Z" fill="#FFFFFF" fill-rule="evenodd" transform="translate(82.85 31.289)" />
    <path d="M0 5.45653L0 0L3.55791 0L3.55791 0.390448L0.463989 0.390448L0.463989 2.50821L3.19042 2.50821L3.19042 2.89866L0.463989 2.89866L0.463989 5.06608L3.61027 5.06608L3.61027 5.45653L0 5.45653Z" fill="#FFFFFF" fill-rule="evenodd" transform="translate(91.031 31.289)" />
    <path d="M4.4864 0L4.4864 5.45653L4.07476 5.45653L0.471687 0.717604L0.456802 0.717604L0.456802 5.45653L0 5.45653L0 0L0.479385 0L4.01471 4.66102L4.02959 4.66102L4.02959 0L4.4864 0Z" fill="#FFFFFF" fill-rule="evenodd" transform="translate(96.89 31.289)" />
    <path d="M2.11206 5.45653L2.11206 0.390448L0 0.390448L0 0L4.68913 0L4.68913 0.390448L2.57656 0.390448L2.57656 5.45653L2.11206 5.45653Z" fill="#FFFFFF" fill-rule="evenodd" transform="translate(103.386 31.289)" />
    <path d="M0.225838 0.907959C0.245338 0.971249 0.262787 0.999001 0.300255 1.02626C0.35466 1.0691 0.442429 1.0915 0.543541 1.0915C0.70163 1.0915 0.801201 1.02431 0.801201 0.917698C0.801201 0.843208 0.748848 0.795498 0.639519 0.76775L0.389565 0.706408C0.257141 0.673302 0.190933 0.639709 0.144226 0.580803C0.0929031 0.519461 0.067749 0.447895 0.067749 0.368052C0.067749 0.147512 0.251495 0 0.528145 0C0.668266 0 0.792984 0.0370007 0.886909 0.107105C0.943375 0.151407 0.972626 0.190355 0.996239 0.266302L0.773483 0.317907C0.738579 0.223948 0.661079 0.179157 0.530197 0.179157C0.39521 0.179157 0.307442 0.238552 0.307442 0.330566C0.307442 0.403105 0.365952 0.451302 0.489136 0.480999L0.71138 0.532604C0.852013 0.567657 0.935669 0.612446 0.98597 0.6845C1.02755 0.741459 1.0491 0.808159 1.0491 0.884106C1.0491 1.11925 0.843796 1.27066 0.530197 1.27066C0.368004 1.27066 0.234047 1.23171 0.129852 1.1543C0.0656967 1.10416 0.0328522 1.0545 0 0.954697L0.225838 0.907959Z" fill="#FFFFFF" fill-rule="evenodd" transform="translate(109.072 31.211)" />
    <path d="M1.03576 1.23366L1.03576 0.153355L0.674934 1.23366L0.552269 1.23366L0.190933 0.153355L0.190933 1.23366L0 1.23366L0 0L0.36647 0L0.637985 0.7955L0.906929 0L1.27545 0L1.27545 1.23366L1.03576 1.23366Z" fill="#FFFFFF" fill-rule="evenodd" transform="translate(110.323 31.23)" />
    <path d="M1.46587 0.707869C1.37708 0.496579 1.26929 0.429882 1.03525 0.429882C0.82019 0.429882 0.697525 0.507289 0.697525 0.637276C0.697525 0.775053 0.786819 0.834934 1.05373 0.884105C1.42532 0.958105 1.57776 1.00338 1.70351 1.08468C1.91138 1.21857 2.02275 1.41574 2.02275 1.64114C2.02275 1.88749 1.88211 2.13042 1.65936 2.26771C1.49922 2.36654 1.2657 2.41912 1.00598 2.41912C0.715988 2.41912 0.482468 2.35242 0.296661 2.21854C0.14064 2.10218 0.0703125 1.99654 0 1.76772L0.534302 1.65137C0.604614 1.87678 0.760651 1.97901 1.03525 1.97901C1.28058 1.97901 1.43301 1.88408 1.43301 1.73267C1.43301 1.59149 1.33241 1.52868 1.0024 1.46491C0.727798 1.41233 0.567657 1.36267 0.430115 1.28185C0.237122 1.1728 0.129333 0.979039 0.129333 0.746816C0.129333 0.528224 0.215057 0.345171 0.38237 0.204473C0.549179 0.0637765 0.752945 0 1.03165 0C1.29906 0 1.51462 0.0598817 1.68143 0.179645C1.81129 0.271658 1.87852 0.363184 1.95602 0.553052L1.46587 0.707869Z" fill="#FFFFFF" fill-rule="evenodd" transform="translate(165.987 6.733)" />
    <path d="M0.486053 0.43329L0.486053 2.34901L0 2.34901L0 0L0.902313 0L1.33601 1.40503L1.79692 0L2.69923 0L2.69923 2.34901L2.11617 2.34901L2.11617 0.43329L1.49255 2.34901L1.09529 2.34901L0.486053 0.43329Z" fill="#FFFFFF" fill-rule="evenodd" transform="translate(168.391 6.769)" />
  </g>
</svg>